Coordinates
version=1
nRows=21
nColumns=12
inDegrees=yes

Units are S.I. units (second, meters, Newtons, ...)
Angles are in degrees

endheader
time	SC_y	SC_z	SC_x	AC_y	AC_z	AC_x	GH_y	GH_z	GH_yy	EL_x	PS_y
       0.0              -22.02           4.75          32.95          59.29         -7.657          1.154         -167.2         -19.13         -164.4          37.21           64.9
   0.00793              -22.02          4.752          32.95          59.29         -7.657          1.155         -167.2         -19.13         -164.4          37.22          64.91
   0.01586              -22.02          4.753          32.96          59.28         -7.658          1.155         -167.2         -19.12         -164.3          37.22          64.92
   0.02379              -22.02          4.755          32.96          59.28         -7.658          1.155         -167.2         -19.11         -164.3          37.23          64.93
   0.03172              -22.02          4.757          32.97          59.28         -7.658          1.156         -167.1          -19.1         -164.2          37.24          64.94
   0.03965              -22.02           4.76          32.98          59.27         -7.659          1.156         -167.1         -19.09         -164.2          37.25          64.96
   0.04758              -22.02          4.762          32.99          59.27         -7.659          1.157         -167.1         -19.08         -164.2          37.27          64.97
   0.05551              -22.03          4.765          32.99          59.26          -7.66          1.157         -167.0         -19.07         -164.1          37.28          64.99
   0.06344              -22.03          4.767           33.0          59.26         -7.661          1.158         -167.0         -19.06         -164.0          37.29          65.01
   0.07137              -22.03           4.77          33.01          59.25         -7.661          1.158         -167.0         -19.05         -164.0           37.3          65.03
    0.0793              -22.03          4.773          33.02          59.25         -7.662          1.159         -166.9         -19.04         -163.9          37.32          65.05
   0.08723              -22.03          4.777          33.03          59.24         -7.663           1.16         -166.9         -19.02         -163.9          37.34          65.07
   0.09516              -22.03           4.78          33.04          59.23         -7.664          1.161         -166.8         -19.01         -163.8          37.35          65.09
    0.1031              -22.04          4.784          33.06          59.23         -7.665          1.161         -166.8         -18.99         -163.7          37.37          65.12
     0.111              -22.04          4.788          33.07          59.22         -7.666          1.162         -166.7         -18.97         -163.6          37.39          65.14
    0.1189              -22.04          4.793          33.09          59.21         -7.667          1.163         -166.6         -18.95         -163.5          37.41          65.17
    0.1269              -22.04          4.798           33.1           59.2         -7.668          1.164         -166.6         -18.93         -163.4          37.44           65.2
    0.1348              -22.05          4.803          33.12          59.19         -7.669          1.165         -166.5         -18.91         -163.3          37.46          65.24
    0.1427              -22.05          4.809          33.14          59.18          -7.67          1.167         -166.4         -18.88         -163.2          37.49          65.28
    0.1507              -22.05          4.816          33.16          59.17         -7.672          1.168         -166.3         -18.86         -163.0          37.52          65.32
    0.1586              -22.06          4.823          33.18          59.16         -7.673          1.169         -166.2         -18.83         -162.9          37.56          65.37
